<svg width="353" height="21" viewBox="0 0 353 21" fill="none" xmlns="http://www.w3.org/2000/svg">
<path fill-rule="evenodd" clip-rule="evenodd" d="M351.051 8.66728C351.78 9.28531 352.314 9.74427 352.473 9.90324L352.979 10.4091L341.441 20.5037L340.559 19.4964L350.219 11.0456H0V9.70723H350.208C350.2 9.70089 350.193 9.69452 350.185 9.68812C349.604 9.19578 348.878 8.58351 348.066 7.89995C347.84 7.70907 347.606 7.51263 347.368 7.31169C345.186 5.47263 342.565 3.2584 340.559 1.50363L341.441 0.496384C343.435 2.24162 346.047 4.44792 348.23 6.28823L348.923 6.87179C349.737 7.55707 350.467 8.17255 351.051 8.66728Z" fill="white"/>
</svg>
