<svg xmlns="http://www.w3.org/2000/svg" viewBox="0 0 410.17 410.32" fill="#fff"><g id="Calque_2" data-name="Calque 2"><g id="Calque_1-2" data-name="Calque 1"><path d="M346.53,52.82c.05,8.41,2.59,11,11,11,13.88,0,27.75-.08,41.62,0,5,0,8.88-1.28,11-6.11V5.68c-2.5-4.47-6.35-5.76-11.34-5.68C385,.21,371.05.06,357.17.08c-7.88,0-10.58,2.68-10.64,10.57,0,4.36,0,8.72,0,13.12H237c0-4.57,0-8.93,0-13.29C236.93,3,234,.09,226.51.08q-21.45,0-42.86,0c-7.44,0-10.41,3-10.47,10.43,0,4.36,0,8.72,0,13.16H63.65c0-4.82.06-9.34,0-13.86C63.49,3,60.61.1,53.77.09Q31.94,0,10.12.08C2.85.1,0,3,0,10.4Q0,32,0,53.67C0,60.75,2.88,63.75,9.9,63.8q21.84.12,43.67,0c7.31,0,10-2.88,10.08-10.33,0-4.37,0-8.75,0-13.14h64.9c-64,33.08-98.71,85.22-104.9,156.5-.19.08-.43.28-.66.28-4.28,0-8.54,0-12.82.08C2.9,197.24,0,200.11,0,207.46q0,21.63,0,43.26c0,7.1,2.84,10.14,9.83,10.19q22,.13,44.06,0c6.81,0,9.68-3,9.71-9.86q.14-22,0-44.07c0-6.89-3-9.71-9.79-9.78-4.5,0-9,0-13.53,0C43.22,120,103.58,55.29,173.18,43.4c0,3.51,0,7,0,10.4.11,6.81,3,9.94,9.7,10q22.23.15,44.45,0c6.68-.05,9.56-3.19,9.66-10,0-3.44,0-6.88,0-10.4,70.88,12.3,130.14,77.89,132.83,153.81-4.24,0-8.48,0-12.72,0-7.85,0-10.55,2.7-10.58,10.62q0,21.23,0,42.46c0,7.94,2.67,10.63,10.56,10.65,14.16.05,28.3-.06,42.45.06,4.87,0,8.56-1.49,10.62-6.1V202.79c-2.49-4.47-6.34-6-11.34-5.66-4.09.26-8.21.05-12.25.05-6.25-71.63-41-123.84-105.15-157h65.1C346.53,44.43,346.52,48.62,346.53,52.82Zm16.36-36.51H394V47.55h-31.1ZM47.33,47.56H16.22V16.29H47.33Zm0,165.85v31.25H16.21V213.41ZM220.71,47.54h-31.3V16.39h31.3ZM394,213.48v31.11H362.79V213.48Z"/><path d="M284.33,219.54q-35.76-65-71.61-130c-3.95-7.18-11.27-7.17-15.26,0q-16,28.86-31.84,57.83c-2.84,5.19-1.82,9.84,2.42,12.19s8.64.7,11.56-4.53c5.08-9.07,10.06-18.21,15.11-27.31.52-1,1.17-1.88,2-3.26a13.82,13.82,0,0,1,.35,1.72c0,17.9,0,35.79.08,53.68,0,2.49-1.29,3-3.07,3.83a27.21,27.21,0,1,0,21.91,0c-2.46-1.06-3-2.35-2.94-4.75.1-13.61,0-27.23,0-40.85V124c1,1.4,1.36,1.88,1.64,2.41q26,47.12,52,94.22c1.3,2.34.51,3.56-1,5.15a128.56,128.56,0,0,0-30,52.69c-1.11,3.8-2,7.67-2.93,11.52H177.48a4,4,0,0,1-.4-.86,131.82,131.82,0,0,0-33.24-64.19,4.53,4.53,0,0,1-.32-4.06c2.15-4.43,4.91-8.58,6.94-13.06,1-2.28,1.93-5.49,1.06-7.48a11.13,11.13,0,0,0-6.2-5.31c-3.54-1.17-6.46,1.1-8.24,4.22-3.57,6.25-7,12.59-10.47,18.9-3.68,6.7-3.4,9.08,2.07,14.39a112.92,112.92,0,0,1,23,31.52,101.53,101.53,0,0,1,9,26.23c-3.32,0-6.27-.22-9.16,0a23.9,23.9,0,0,0-21.4,18.2,23.55,23.55,0,0,0,10,25.51,5,5,0,0,1,2.49,4.87c-.06,20,.07,40.06-.11,60.08-.05,5,1.2,8.86,5.68,11.35H153c4.47-2.49,5.74-6.36,5.69-11.34-.19-18.68-.09-37.37-.09-56.05v-4.51h92.93v4.11c0,18.82.11,37.63-.07,56.45,0,5,1.22,8.85,5.68,11.34H262c4.49-2.49,5.74-6.37,5.69-11.35-.18-20-.12-40.05,0-60.08a6.36,6.36,0,0,1,2.11-4.51c9-6.57,12.89-16.6,10-26.63-3.09-10.58-11.81-17.24-23.12-17.6-2.33-.08-4.66,0-7.26,0,.38-1.71.62-2.88.92-4a113.61,113.61,0,0,1,31.49-53.87C286.65,227.54,287.21,224.77,284.33,219.54Zm-68.06-11a11.19,11.19,0,0,1-22.37,0,11.19,11.19,0,1,1,22.37,0Zm37.25,97.66a22.91,22.91,0,0,1,4.76.31,7.85,7.85,0,0,1,0,15.38,20.51,20.51,0,0,1-4.37.31q-24.59,0-49.22,0c-16.14,0-32.28,0-48.41,0a17.67,17.67,0,0,1-5.5-.67,7.14,7.14,0,0,1-5.12-7.32c0-3.57,1.73-6.2,5.12-7.3a19.75,19.75,0,0,1,5.9-.68Q205.11,306.14,253.52,306.17Z"/><path d="M165.42,178a8,8,0,0,1-7.83,8,8,8,0,0,1-7.91-7.86,8.07,8.07,0,0,1,7.78-8A8.15,8.15,0,0,1,165.42,178Z"/></g></g></svg>