<svg xmlns="http://www.w3.org/2000/svg" viewBox="0 0 394.66 166.33"><defs><style>.cls-1{fill:#090a07;}.cls-2{fill:#090909;}.cls-3{fill:#070901;}.cls-4{fill:#406806;}.cls-5{fill:#87cc02;}.cls-6{fill:#86ca02;}.cls-7{fill:#517a01;}.cls-8{fill:#e9e9e9;}.cls-9{fill:#8b8b8b;}.cls-10{fill:#cbcbcb;}.cls-11{fill:#262626;}.cls-12{fill:#fff;}</style></defs><g id="Calque_2" data-name="Calque 2"><g id="Calque_1-2" data-name="Calque 1"><path class="cls-1" d="M138.38,156.45a65.51,65.51,0,0,1-13.32-6.65,4.32,4.32,0,0,1-2.31-4.1c0-6.56-.1-13.11,1.7-19.52.3-1.08.74-2.65-.45-3.32-1.65-.92-1-2-.57-3,2-4.88,2.34-10.15,4-15.16,2-6.24.65-12.8-.56-19.15-.33-1.73,0-1.83,1.58-1.48,4.55,1,5.4.63,8-3.45,1.53-2.41,2.82-4.92,4.54-7.27,3.14-4.32,4.37-9.2.66-14.06a4,4,0,0,1-.88-2.76c.22-4.31-2.53-8.34-1.27-12.76,0-.17-.13-.38-.15-.57-.72-4.93-4.64-7.13-8.2-9.63l-.08.08c-.4,2.31-2.72.45-3.62,1.66l1.37,1.75c.23-1.51,1.34-1.2,2.3-1a7.59,7.59,0,0,1,6.25,8.49c-.33,2.85-.49,5.35.89,8.17C140,56.21,139,58,135.67,60c0,.66.53.44.81.44,4.66,0,6.19,1.87,5.24,6.43a3.83,3.83,0,0,1-.16.58c-1.75,5.09-4.79,9.52-7.64,14-1.56,2.46-5.72,2.08-7.94-.25-1.35-1.41-1.13-6.07.24-7.38,1.16-1.11,2.59-.86,3.94-1.05,3-.42,3.24-.9,1.64-3.49a10.27,10.27,0,0,1-1.4-2.6c-.44-1.7-.86-3.49,1.29-4.59.61-.3-.16-.48-.38-.68a3,3,0,0,1-3.48-1.6c-.42-.82.25-1.86,1.17-2.42.52-2.21,1.53-4.33,1.15-6.69-.13-.87.41-1.27,1.06-1.57,2.67-1.22,2.29-3.58,1.78-5.64-.63-2.54-.94-5.5-4.2-6.39a12.43,12.43,0,0,1,2,6.75C131,46,130,47,128,45.94c-7.33-3.72-14.89-3.17-22.43-1.12a12.57,12.57,0,0,1-12-2.53C90.72,40,90,40.42,89.36,44.12a14.27,14.27,0,0,1-2.77,6.5c-2.32,3-3.77,3.32-8.1,2l0,.06c4.28,4.89,5.55,11.57,9.84,16.47,1,1.12,1.9,2,3.44,1.94a3.29,3.29,0,0,1,.89.11c2.58.73,4.82,2,5.74,4.65.4,1.14-4.23,5.55-5.89,5.91-1.94.41-6.39-3.38-6.38-6,0-2-1-2.82-2.39-3.62C80,70,76.27,67.91,72.62,65.69s-6.77-4.9-7.6-9.44c-.24-1.33-.37-2.65.51-3.7,2.1-2.52,3-5.57,4-8.58,1.29-3.84,3.08-4.6,6.78-3l.48-.44c-2.7-2.8-2.49-5.17.63-7.72,3.29-2.68,7.26-2.78,11.2-3-.71-1-2.06-.49-3-1.2-.09-.67.69-.87.9-.84,4.68.56,9.53-3.55,14.1.47a1,1,0,0,0,.2.14.52.52,0,0,0,.15.06.35.35,0,0,0,.12,0,.65.65,0,0,0,.43-.06l.09-.05a.29.29,0,0,0,.12-.1l.08-.09s0,0,0,0l.07-.09,0,0-.26-.3-.26-.3a8.45,8.45,0,0,1-1.3-1.88,3.44,3.44,0,0,1-.21-.53,3.79,3.79,0,0,1,.37-3.14c5.18,4.32,9.57,4.66,15,.89.34,2.29.85,4.4-.1,6.55,2.13-.1,4.17-1.52,6.39-.5l0-.06c-.4-1.2-1.41-1.25-2.44-1.26-.85,0-1.75-.16-1.67-1.22.17-2.17-.61-4.2-.34-6.48.53-4.41,1.27-8.86.87-13.35-.16-1.91-.51-3.84-2.56-4.71-2.48-1.07-5.09-2.06-7.8-1.66-7.14,1-9.65.92-9.45,10.05.07,3.38.72,6.72.63,10.09,0,1.62.07,4.09-1.52,4.49-2.52.61-5.14,1.62-7.63,1.63-4.18,0-7.8,1.49-11.52,2.86-1.1.41-2,1.11-3.22,1.45-14.59,4.16-28.82,9.21-42.23,16.41C21.74,52.94,11.82,59.87,5.4,70.87A36.84,36.84,0,0,0,0,87.12c0,.79-.1,1.68.7,2.16s1.45-.28,2-.8a124.08,124.08,0,0,1,23-17.39c1.87-1.11,2.6-.82,3.76.82C33,76.78,33.26,82.48,34.16,88c1.35,8.24,5.7,14,13.71,16.89,4.66,1.66,9.52,1.82,14.38,2.12,4.7.3,9.36,1,13,4.3,2.22,2,4.24,4.21,6.43,6.24.61.56.85,1,.52,1.76-2.73,6.47-1.84,13.31-2,20-.13,5.9-.92,11.58-4.13,16.79-2.44,3.95-1.24,6.95,3,8.9,3.52,1.6,7.13,1.5,10.81.63,2.45-.58,3.39-2.33,2.76-4.48a29,29,0,0,1-1.2-9.7c.26-4.48.12-9.06,1.89-13.38,1.94-4.76,4.82-9.19,5.18-14.52a19.59,19.59,0,0,1,.58-5c1.59-4.65,6.33-6.7,8.79-11,2,4.56,2.71,8.2-1.54,11.43-3.43,2.61-5.09,6.31-3.83,10.79a45,45,0,0,0,1.92,6.27,22.5,22.5,0,0,1,.45,18.22c-1.46,3.69,0,6.12,3.88,7.11a22.11,22.11,0,0,0,5,.64c5.17.13,10.35-.35,15.52.49a18.49,18.49,0,0,0,8.24,0c1.53-.46,3.47-.74,3.73-2.9S139.81,157,138.38,156.45ZM100.65,11c0-7.52,1.7-9,8.92-8.36,5.08.47,6.19,1.66,6,6.78a56.43,56.43,0,0,1-1.21,10c-.64,2.93-2.34,4.37-5.45,4.38-4.94,0-6.1-.54-7.13-4.07a12,12,0,0,1-.44-2C101.09,15.4,100.36,13.08,100.65,11Zm27.51,54.13c-.27,2.38,1.56,3.74,2.72,5.79-6.14.65-6.14.65-5.13-5a6.39,6.39,0,0,1,.09-.89c.32-.84,0-2.33,1.29-2.28S128.27,64.22,128.16,65.16Zm-33.89,5c-1.56-.21-3.37.14-4.7-1.39-3.09-3.56-4.35-8-6-12.21-.33-.82.2-1,.71-1.34.7-.41,1.39-.79,2.12,0,2,2.22,4.64,3.73,6.92,5.64,2,1.66.94,4.54,2,6.48C95,68.59,95,70.31,94.27,70.21ZM100,58.61a3,3,0,0,0-.07-.51c-5.06,1-7.88-2.29-10.75-5.52a1,1,0,0,1-.2-1.32c1.73-2.55,2.22-5.44,2-8.95l6.63,4.57c5,1.67,9.61-.81,14.42-1.17a32.79,32.79,0,0,1,13.8,1.74,2.34,2.34,0,0,1,1.76,2.65,12.36,12.36,0,0,1-1.35,5.44A30.57,30.57,0,0,0,122.91,69c0,.88.17,1.93-1.14,2-7.17.55-14.34,1.07-20.73-3.29-3.34-.44-3.29-3.12-3.8-5.55S98.88,59.63,100,58.61ZM24.35,68.88c-7,4.17-13.85,8.72-19.67,14.55A20.53,20.53,0,0,1,2.9,84.79,35.26,35.26,0,0,1,7.17,72.36C11.89,63.92,19.05,58,27.13,53A168.43,168.43,0,0,1,72.2,34.13a2.94,2.94,0,0,1,.84,0,.09.09,0,0,0,0,0l.21-.17-.16.22H73c-.23,2.35-.56,4.37-3.5,5.29-2.58.8-3.3,3.64-3.91,6-.7,2.77-2.29,4.24-4.88,5.39C48.36,56.33,36,62,24.35,68.88Zm57.17,45.53c-4.29-6.13-10.4-8.92-17.54-10l-7,0-.73,0c-6.3-.47-12.19-1.85-16.13-7.4A15.22,15.22,0,0,1,37,88.51c-1-3.21-1.18-6.6-1.92-9.86a22.29,22.29,0,0,0-4.84-10.13A277.07,277.07,0,0,1,57,55.05c3.92-1.66,3.95-1.59,4.7,2.83,2.55,6.22,7.82,9.26,13.64,11.67a3.78,3.78,0,0,0,.53.27c5.81,1.63,8.93,6,11.42,11.06.26.53.34,1.25.93,1.4,3.86,1,2.23,3.13,1.18,5.18-.62,4-1.74,7.91-2.18,12a24.31,24.31,0,0,0,.14,8.84A6.15,6.15,0,0,1,86,114.17C84.36,116.17,82.9,116.39,81.52,114.41Zm5.83,49.53c-2.37.06-4.8.26-7.08-.63-3.54-1.36-4.21-4.19-1.64-7A43.29,43.29,0,0,1,82,153.44c-.38-.63-1.64.09-1.51-1a4,4,0,0,1,2.6-3.37c1.76-.52,4-.68,5.43.61,1.07.94,1,2.41.3,4.13s.66,4,1.33,6C91.16,162.83,90.53,163.86,87.35,163.94Zm22.85-45.7c2.81-.62,2.49-2.25,2.16-4.17a6.4,6.4,0,0,0-.5-2.32c-4.12-6.5-.6-12.81.4-19.18,0-1.27.57-2.53.14-4-1.37.58-1.27,1.92-1.54,2.91-1.11,4.13-2,8.33-3.79,12.25-1.24,2.66-2.71,5.22-5.12,6.87-3.39,2.32-3.87,6.58-6.7,9.23-1,1,1.15,1.31.89,2.72a41.52,41.52,0,0,1-1.91,7.8c-2,5.27-4.71,10.37-4.29,16.29.06.94-.4,1.5-1.44,1.4-.4,0-.8,0-1.19,0-5.55-.32-5.55-.41-4.93-5.94.42-3.86.56-7.74.89-11.61.51-6,2-11.56,6.23-16.11,1.08-1.17,2-2.34,1.46-4.23C88.44,101.2,90.31,92.53,93,84c.85-2.64,4.12-3.53,5.89-5.68.94-1.14,1.84-2,1.21-3.61-2.19-1.11-2.89-2.75-1.57-5.3l2.68,1.13A53.81,53.81,0,0,0,121,72.42c.91-.06,1.7-.18,1.79,1.23.41,6.75,2.61,13.22,3.15,20,.48,6,.77,11.9-2.86,17.22-.83,1.22-.14,2.72-.23,4.09-.16,2.42-1.1,4.62-1.64,6.93a1.46,1.46,0,0,1-1.61,1.32c-2.58.08-5.14.67-7.73.16a3.76,3.76,0,0,1-.88,0c-1.39-.34-3.77.53-4-.91A4.22,4.22,0,0,1,110.2,118.24Zm29,41.51c-.42,1.82-3.16,1.71-5.13,1.43-2.32.51-4.58-.17-6.8-.52-4.64-.72-9.31-.78-14-1.09-.68,0-1.36.12-2,.11-4.37-.06-5.47-2-3.47-6,2.32-5.85,1.3-11.57-.74-17.24a5.33,5.33,0,0,1-1.09-3,6,6,0,0,1-1-3.05c-.19-.83-.39-1.66-.59-2.48-.72-3.89-.73-3.82,3.07-3.2a35.81,35.81,0,0,0,12.39-.35c2.5-.47,3.49,0,2.36,2.58-.15.36-.29.73-.43,1.1,0,.77-.09,1.55-.13,2.33l-.54,2.39c0,.81-.09,1.62-.14,2.44-.17,3.86-.43,7.71-.25,11.58a4.57,4.57,0,0,0,2.71,4.44c3.45,1.72,6.78,3.69,10.16,5.56a7.73,7.73,0,0,1,1.69.41C136.7,157.91,139.61,157.85,139.18,159.75Z"/><path class="cls-2" d="M200.07,99.53c0-3.28,0-6.57,0-9.85-.07-4.23-2.87-7.06-7.05-7.83-4.37-.8-8.74-.27-13.11-.5a3.21,3.21,0,0,0-3.52,2.6c-1.74,6.14-.51,10.73,7.07,11.07,1.94.09,2.39.89,2.27,2.56-.09,1.19,0,2.39,0,3.59a1.48,1.48,0,0,1-1,1.62c-4.22,1.62-10.68-.51-13.45-4.1-3.64-4.71-3.63-19-.28-24A10.08,10.08,0,0,1,180.4,70a19.1,19.1,0,0,1,8.51,2.48c4.6,2.52,6.27,2.18,9.14-2.24a16.35,16.35,0,0,0,1.58-3.83c.69-2.08.2-3.28-1.65-4.45a35.66,35.66,0,0,0-19.56-5.27c-10.35,0-20,7.56-23.13,16.77a41.2,41.2,0,0,0,.2,26.9c2.85,8.44,8.54,14.23,17.61,15.4a56.09,56.09,0,0,0,25.27-2.94c1.43-.49,1.74-1.74,1.72-3.16C200,106.31,200.07,102.92,200.07,99.53Zm-2.5,6.43c0,4.48,0,4.59-4.26,5.61-6.22,1.49-12.52,2.53-18.95,1.73-8-1-13.35-5.44-16-12.9a38.34,38.34,0,0,1-1.45-22.89c3.28-12.86,13.72-19.86,26.89-18a33.18,33.18,0,0,1,11.52,3.94c2.08,1.14,2.34,2.44,1.16,4.28-.58.92-1.18,1.84-1.84,2.7-1,1.27-2,1.59-3.46.42a17.15,17.15,0,0,0-8.27-3.21c-9-1.27-14.77,3.05-16.34,12-1,5.86-1.13,11.7.84,17.38,2,5.85,6.64,8.86,12.85,8.73,8-.17,8-.17,8.19-8,.1-5,.1-5-5.07-5.3-4.12-.23-5.1-1.33-5-5,.08-2.52.93-3.47,3.58-3.25,3.37.28,6.78,0,10.17.16,3.15.12,5.07,1.79,5.28,4.91.23,3.47.06,7,.06,10.45h.13Z"/><path class="cls-3" d="M389.3,54.29c-.32-2.63-1.61-4.09-4.51-4.07-11.27.07-22.55.05-33.83,0a4.08,4.08,0,0,0-3.62,1.65,19.41,19.41,0,0,0-4.09,11.31c-.08,3.66.6,4.34,4.32,4.37,4.36,0,8.72,0,13.08,0,.06.22.13.44.19.66C356.57,71.6,352.31,75,348,78.35a3.45,3.45,0,0,0-1.76,2.58,12.49,12.49,0,0,0,2.86,8.59c1.68,2.17,4,1.1,6.09.77L357,90c3.28-.51,5.6,1.76,4.71,4.9s-2.42,5.67-5.45,7.15c-5.34,2.61-10.22,1.77-14.7-1.93-1-.86-1.91-1.66-3.38-.74-4.14,2.56-7.68,5.65-9.91,10.07a2.28,2.28,0,0,0,.29,3,21.18,21.18,0,0,0,6.54,5.14,35.07,35.07,0,0,0,41.23-11A28.83,28.83,0,0,0,382,90.47c.25-5.69-2.75-10.17-8-13.09,2.91-2.29,5.49-4.65,8.39-6.52C388.57,66.87,390.13,61.11,389.3,54.29Zm-7.49,13.9c-4.41,3.23-8.71,6.62-13.14,10,.19.21.34.53.55.57,8.21,1.87,11.66,7.43,9.75,15.79-3.37,14.81-18.42,25.06-33.84,23-4.91-.64-9.6-1.77-13.4-5.29-1.2-1.11-1.43-2-.37-3.24s2-2.47,3.06-3.67a12.85,12.85,0,0,1,4.13-3.4c2.06-1,2.81,1.35,4.16,2.11,8.48,4.79,18.8.87,21.19-8.18,1.46-5.52-1.63-9.07-7.29-8.37-.39,0-.79.13-1.18.18-4.86.74-5.75,0-6.5-4.86a3,3,0,0,1,1.41-3.24c5.58-4.35,11-8.91,16.89-12.87.78-.52,1.49-1.14,2.54-2-7.42,0-14.36-.13-21.29.07-2.86.08-3.19-1.1-2.57-3.35.21-.77.34-1.56.57-2.32,1.73-5.8,2.65-6.48,8.69-6.48,9.58,0,19.16.06,28.74,0,2.06,0,2.81.71,3,2.63C387.59,60.57,386.25,64.93,381.81,68.19Z"/><path class="cls-2" d="M233.6,82.27c-4.29-2.1-8.7-4-13-6-1.54-.7-2.87-1.64-2.46-3.6s2-2.6,3.82-2.74a19.63,19.63,0,0,1,10.75,1.92c5.13,2.62,4.45,2.37,8.14-2.59,1-1.31,1-3,1.47-4.49.66-2.1-.18-3.13-1.9-4a32.33,32.33,0,0,0-11-3.59c-8.32-1.09-16.21-.64-22.56,6.26-4.6,5-5.68,15.78-.48,21a32.73,32.73,0,0,0,10.9,7.11c3.38,1.4,7.05,2.33,9.76,5,2.35,2.31,1.7,4.94-1.4,5.91a12.24,12.24,0,0,1-2.63.43c-5,.38-9.28-1.88-13.56-4-1.49-.75-3.05-1.41-4.36.12a23.88,23.88,0,0,0-3.44,4.85c-1.9,3.89-1.25,5.47,2.61,7.67a35.5,35.5,0,0,0,18.54,4.59c3,.39,6.66-.58,10.23-1.93a15.88,15.88,0,0,0,10.21-11.23C245.45,94.2,241.72,86.25,233.6,82.27Zm7.55,17c-.59,6.75-4.32,11-10.61,13-9.21,2.8-17.91,1.22-26.09-3.72a1.62,1.62,0,0,1-.93-2.15,12.55,12.55,0,0,1,2-4.27c1-1.28,1.8-1.6,3.4-.63,4.78,2.88,10,4.53,15.65,3.86,3-.35,5.35-1.64,6.26-4.71.76-2.56-.63-5.53-3.47-7.28-4.17-2.58-8.94-3.89-13.27-6.13-3.44-1.77-6.43-4-7.9-7.77-3.21-8.11,1.7-17,10.68-19.35a25,25,0,0,1,6.21-.89c5.86,0,10.48,1.49,15.06,3.23a2,2,0,0,1,1.47,2.72,11.81,11.81,0,0,1-1.72,4.09c-.83,1.32-1.7,1.64-3.18.82a26.76,26.76,0,0,0-10.6-2.88,9.77,9.77,0,0,0-6,1.24c-3.69,2.22-3.89,6.55-.44,9.11,2.75,2,6,3,9.09,4.47a66.84,66.84,0,0,1,6.73,3.19C238.7,88.38,241.7,92.87,241.15,99.28Z"/><path class="cls-2" d="M291.66,109.56q-7.43-22.52-14.86-45c-2.39-7.22-1.29-7.2-9.91-7.15-7.11.13-6.91-1.1-9.49,6.88-4.28,13.24-8.69,26.44-13,39.65-.69,2.07-1.45,4.13-2.07,6.22-.84,2.87-.12,4,2.69,4.79,2.66.79,5.35.53,8,.37a3.54,3.54,0,0,0,3.41-2.84c.68-2.59,1.64-5.11,2.32-7.7.31-1.18.65-1.57,2-1.46,2.78.21,5.58.11,8.37.12,5,0,5.09,0,6.5,4.72,2.1,7.08,5.95,8.53,13.38,6.64C292.34,113.93,292.74,112.82,291.66,109.56Zm-7.28,3.53c-2.57.19-4.6-1.06-5.62-3.87-.2-.56-.45-1.11-.64-1.67-.76-2.33-.62-5.58-2.45-6.75s-4.63-.23-7-.24c-3,0-6,.06-9-.09-1.63-.08-2.52.21-2.93,2-.62,2.7-1.74,5.28-2.39,8-.43,1.78-1.33,2.53-3.08,2.48-.7,0-1.39.07-2.09.06-4.84-.12-5.05-.41-3.54-5q7.5-22.71,15-45.43a3.3,3.3,0,0,1,3.28-2.6c8.43-.83,8.41-.89,11,7.1q6.69,20.5,13.43,41C289.72,112.2,289.13,113,284.38,113.09Z"/><path class="cls-3" d="M319.35,58c-7.25-1.5-14.69-.51-22-.43-2.21,0-3.26,1.76-3.23,4.2.11,8.26,0,16.52,0,24.77s.05,16.72,0,25.08c0,2,.52,3.09,2.71,3.41a27.83,27.83,0,0,0,9.46-.1c2.08-.41,2.86-1.44,2.83-3.46-.06-3.78.08-7.57-.06-11.34-.07-2.11.67-2.81,2.75-2.72a25.19,25.19,0,0,0,11.08-1.79c8.23-3.52,11.53-10.1,11.41-18.8C334.13,67.13,328.81,60,319.35,58Zm8.3,31.24c-3.75,4.45-9,5.46-14.59,5.57-2.14,0-5.07-1-6.23.53s-.39,4.18-.42,6.36c0,3-.09,6,0,9,.06,1.54-.52,2.21-2,2.21-.1,0-.2,0-.3,0-7.53.7-7.53.7-7.53-6.83V86.36c0-8,0-15.93,0-23.89,0-1.5.14-2.45,2-2.44,5.69,0,11.39-.38,17-.05,6.54.39,12.22,3,14.61,9.56C332.76,76.39,332.64,83.33,327.65,89.25Z"/><path class="cls-4" d="M389.69,71.11A23.17,23.17,0,0,1,384,75.92c-1.51.87-2.15,1.58-.73,3.4,4.62,5.92,3.74,12.49,2.25,19.32-2.7,12.34-17.42,24.5-29,25.78a49.07,49.07,0,0,1-8,.55c-5.33.17-10.23-.49-14.79-2.75a18.21,18.21,0,0,1-5-4.22c-.52-.56-1.34-1.1-.59-2s1.44-.12,2,.33a23.83,23.83,0,0,0,9.94,4.56c12.66,2.75,24.05-.15,33.5-8.78a28.88,28.88,0,0,0,9.86-22.83A13.73,13.73,0,0,0,378.83,79c-1.5-1.36-1.82-2,0-3.29a79.6,79.6,0,0,0,6.33-5c3.95-3.3,6.31-7.38,6-12.71-.05-.89,0-1.79,0-2.68s-.2-1.92,1.14-2,1.6.75,1.86,1.84C395.65,61.33,393.74,66.53,389.69,71.11Z"/><path class="cls-1" d="M128.24,32.25c-.18.19-.35.38-.53.56-.75-1.25-2.8.26-3.31-1.53l.2-.18C125.91,31.17,127.4,30.68,128.24,32.25Z"/><path class="cls-1" d="M131.12,33.56l-.08.08c-1-.69-2.46.44-3.33-.83.18-.18.35-.37.53-.56C129.35,32.35,130.47,32.43,131.12,33.56Z"/><path class="cls-1" d="M122.78,29.34l-.12.13-1.15-.64,0-.06C122.07,28.74,122.54,28.79,122.78,29.34Z"/><path class="cls-1" d="M124.6,31.1l-.2.18-.55-.63.13-.13Z"/><path class="cls-1" d="M124,30.52l-.13.13L123.3,30l.06-.07Z"/><path class="cls-1" d="M123.36,29.94l-.06.07-.64-.54.12-.13Z"/><path class="cls-5" d="M61.73,57.88c2.55,6.22,7.82,9.26,13.64,11.67a5.31,5.31,0,0,0,.53.27c5.81,1.63,8.94,6,11.42,11.06.27.53.35,1.26.93,1.4,3.87,1,2.24,3.13,1.18,5.18-.8,0-1.19.64-1.68,1.1a89,89,0,0,1-15.37,11.66c-2.7,1.63-5.94,2.11-8.39,4.19l-7,0a.45.45,0,0,0-.73,0c-6.3-.47-12.18-1.85-16.13-7.4A15.3,15.3,0,0,1,37,88.51c5.44-11.07,13.82-19.79,22.62-28.16C60.42,59.6,61.38,59,61.73,57.88Z"/><path class="cls-6" d="M73.06,34.06c-.25,2.38-.56,4.41-3.52,5.34-2.57.8-3.3,3.64-3.91,6-.7,2.77-2.29,4.24-4.88,5.39C48.37,56.33,36,62,24.35,68.88c-7,4.18-13.84,8.72-19.67,14.56-.33.33-.75.57-1.78,1.35A35.26,35.26,0,0,1,7.17,72.36C11.9,63.92,19.05,58,27.14,53A168.29,168.29,0,0,1,72.21,34.13a3.3,3.3,0,0,1,.89,0Z"/><path class="cls-7" d="M61.73,57.88c-.35,1.12-1.31,1.72-2.1,2.47C50.83,68.72,42.45,77.44,37,88.51c-1-3.21-1.18-6.6-1.91-9.86a22.22,22.22,0,0,0-4.85-10.12A274.9,274.9,0,0,1,57,55.05C61,53.39,61,53.46,61.73,57.88Z"/><path class="cls-6" d="M107.77,153.69c2.31-5.85,1.3-11.57-.74-17.24,4.53-1.47,9.26-.63,13.87-1.23-.18,3.86-.43,7.71-.26,11.58a4.57,4.57,0,0,0,2.71,4.44c3.46,1.72,6.78,3.69,10.17,5.56a5.89,5.89,0,0,1,.53,4.39c-2.31.5-4.57-.18-6.8-.53-4.64-.72-9.3-.78-14-1.09.58-3.63-1.11-5.41-4.65-5.69A5.19,5.19,0,0,1,107.77,153.69Z"/><path class="cls-7" d="M64,104.41c2.45-2.08,5.69-2.56,8.39-4.19A89,89,0,0,0,87.75,88.56c.49-.46.88-1.1,1.68-1.1-.62,4-1.74,7.91-2.18,12-.32,3-.61,5.93.14,8.85a6.11,6.11,0,0,1-1.4,5.9c-1.63,2-3.08,2.22-4.46.24C77.24,108.28,71.12,105.49,64,104.41Z"/><path class="cls-8" d="M82,153.44c-.38-.62-1.64.1-1.51-1a4,4,0,0,1,2.6-3.37c1.77-.52,4-.68,5.43.61,1.07.94,1,2.41.31,4.13s.66,4,1.33,6c1,3,.41,4.06-2.77,4.14-2.38.06-4.81.26-7.09-.63-3.53-1.36-4.21-4.19-1.64-7A43.29,43.29,0,0,1,82,153.44Z"/><path class="cls-6" d="M101.88,28.16a.37.37,0,0,1,0-.11l.08,0Z"/><path class="cls-6" d="M103.09,28.66h0s0,0,0,0Z"/><path class="cls-6" d="M131,33.64c-.4,2.31-2.72.45-3.62,1.66a16,16,0,0,0-11.61-3.6c-2.84.83-5.75.28-8.62.55-2.32-1-4.81-.94-7.26-1.15a21.81,21.81,0,0,0-7.81-.05c-1.43.34-2.21-1.14-3.48-1.24-.71-1-2.06-.49-3-1.2-.09-.67.69-.87.9-.84,4.68.56,9.53-3.55,14.1.47a1,1,0,0,0,.2.14.52.52,0,0,0,.15.06.35.35,0,0,0,.12,0,.6.6,0,0,0,.43-.06l.09-.05a.29.29,0,0,0,.12-.1l.08-.09a.88.88,0,0,0,0,.17.29.29,0,0,0,0,.14.61.61,0,0,0,0,.12.16.16,0,0,0,.06.08.54.54,0,0,0,.51.13l.33-.08.17-.06c.37,1,1.19.59,1.88.55,3.39,1.09,6.76,3.05,10.19.11,2.13-.1,4.17-1.52,6.39-.5l1.15.64.64.54.55.64.55.63c.51,1.79,2.56.28,3.31,1.53S130,33,131,33.64Z"/><path class="cls-9" d="M113.85,119.71a33.4,33.4,0,0,0-2,3.63,3.76,3.76,0,0,1-.88,0c-1.39-.34-3.77.53-4-.91a4.22,4.22,0,0,1,3.2-4.23c2.81-.62,2.49-2.25,2.16-4.17a6.4,6.4,0,0,0-.5-2.32c-4.12-6.5-.6-12.81.4-19.18,1.85,2.7.75,5.87,1.4,8.79.9,4,1.11,8.21,1.83,12.28A7.75,7.75,0,0,1,113.85,119.71Z"/><path class="cls-6" d="M95.24,67.4c-.22,1.19-.26,2.91-1,2.81-1.57-.21-3.38.14-4.7-1.39-3.1-3.56-4.35-8-6-12.21-.34-.82.2-1,.7-1.34.7-.41,1.39-.79,2.12,0,2,2.22,4.65,3.73,6.93,5.64C95.27,62.58,94.21,65.46,95.24,67.4Z"/><path class="cls-9" d="M100,58.1c-5.06,1-7.88-2.29-10.75-5.52a1,1,0,0,1-.2-1.32c1.73-2.55,2.22-5.44,2-8.95l6.63,4.57c-2,2.7-1.68,5.19.51,7.66C99,55.54,100,56.58,100,58.1Z"/><path class="cls-10" d="M101.92,28l0,0-.08,0Z"/><path class="cls-10" d="M103.09,28.66l0,0,0,0A.06.06,0,0,1,103.09,28.66Z"/><path class="cls-6" d="M104.32,127.93c-.73-3.89-.74-3.82,3.07-3.2a35.76,35.76,0,0,0,12.38-.35c2.5-.47,3.49,0,2.37,2.58-.16.36-.29.73-.44,1.1a22.56,22.56,0,0,0-4.42.23C113,128.74,108.6,129.14,104.32,127.93Z"/><path class="cls-6" d="M121.57,130.39l-.54,2.39c-5,.86-10.06.54-15.1.68a6,6,0,0,1-1-3.05C110.46,131.28,116,130.89,121.57,130.39Z"/><path class="cls-7" d="M121.57,130.39c-5.55.5-11.11.89-16.66,0l-.59-2.48c4.28,1.21,8.64.81,13,.36a22.56,22.56,0,0,1,4.42-.23C121.66,128.84,121.62,129.61,121.57,130.39Z"/><path class="cls-7" d="M105.93,133.46c5-.14,10.1.18,15.1-.68,0,.81-.09,1.63-.13,2.44-4.61.6-9.34-.24-13.87,1.23A5.34,5.34,0,0,1,105.93,133.46Z"/><path class="cls-7" d="M107.77,153.69a5.19,5.19,0,0,0,.87.19c3.54.28,5.23,2.06,4.65,5.69-.69,0-1.37.12-2.05.11C106.87,159.62,105.77,157.72,107.77,153.69Z"/><path class="cls-9" d="M101,67.75c-3.34-.44-3.29-3.12-3.8-5.55s1.64-2.57,2.78-3.59C102.3,61.44,101,64.67,101,67.75Z"/><path class="cls-7" d="M134.05,161.19a5.89,5.89,0,0,0-.53-4.39,8,8,0,0,1,1.69.41c1.49.7,4.41.64,4,2.54S136,161.46,134.05,161.19Z"/><path class="cls-9" d="M101.24,70.58a7.75,7.75,0,0,1-1.11,4.17c-2.19-1.11-2.89-2.75-1.57-5.3Z"/><path class="cls-9" d="M131.31,61.38a3,3,0,0,1-3.48-1.6c-.42-.82.25-1.86,1.17-2.42C130.42,58.32,130.72,59.94,131.31,61.38Z"/><path class="cls-7" d="M56.25,104.41a.45.45,0,0,1,.73,0Z"/><path class="cls-6" d="M73.1,34.11l.17-.22-.21.17Z"/><path class="cls-6" d="M369.77,64.81c-7.42,0-14.35-.13-21.28.07-2.86.08-3.19-1.1-2.57-3.35.21-.77.33-1.56.56-2.32,1.73-5.8,2.65-6.48,8.7-6.48,9.58,0,19.16.06,28.73,0,2.06,0,2.82.72,3,2.64.63,5.24-.7,9.6-5.14,12.86s-8.72,6.62-13.15,10c.2.21.34.53.55.57,8.21,1.87,11.66,7.43,9.76,15.79-3.38,14.81-18.43,25.06-33.85,23-4.91-.64-9.59-1.77-13.39-5.29-1.2-1.11-1.43-2-.38-3.24s2-2.47,3.06-3.67a12.85,12.85,0,0,1,4.13-3.4c2.07-1,2.82,1.35,4.16,2.11,8.48,4.79,18.81.87,21.19-8.18,1.46-5.52-1.62-9.07-7.28-8.37-.4,0-.79.13-1.19.19-4.86.73-5.74,0-6.5-4.87a3,3,0,0,1,1.42-3.24c5.58-4.35,11-8.91,16.88-12.87C368,66.25,368.72,65.63,369.77,64.81Z"/><path class="cls-11" d="M115.81,31.7c-2.73,2.5-5.68,1.37-8.62.55C110.06,32,113,32.53,115.81,31.7Z"/><path class="cls-4" d="M99.93,31.1a12,12,0,0,1-7.81-.05A21.81,21.81,0,0,1,99.93,31.1Z"/><path class="cls-1" d="M78.49,52.62l0,.06-.73-.24c.1-.1.18-.28.28-.29C78.3,52.13,78.52,52.26,78.49,52.62Z"/><path class="cls-1" d="M77.22,41.56c-.58.5-.59-.36-.89-.57l.48-.44C77.3,40.75,77.64,41.2,77.22,41.56Z"/><path class="cls-1" d="M104.93,29.22c-.69,0-1.51.49-1.88-.55,0,0,0,0,0,0l0,0C103.91,28.15,104.42,28.7,104.93,29.22Z"/><path class="cls-1" d="M103.09,28.66h0l-.17.06-.33.08a.54.54,0,0,1-.51-.13.16.16,0,0,1-.06-.08.61.61,0,0,1,0-.12.29.29,0,0,1,0-.14.88.88,0,0,1,0-.17s0,0,0,0a.37.37,0,0,1,0-.11h0c.54-.11,1-.14,1.16.58A.06.06,0,0,1,103.09,28.66Z"/><path class="cls-1" d="M266.9,70c-2.22,7.64-4.88,15-7,22.61h13.51C271.23,85,269.07,77.49,266.9,70Zm1.9,19.55a7.86,7.86,0,0,1-4.68-.11c-.83-.34-.33-1.2-.12-1.84.8-2.52,1.61-5,2.41-7.56l.59-.11c.79,2.54,1.58,5.07,2.34,7.61C269.58,88.32,269.8,89.32,268.8,89.55Z"/><path class="cls-1" d="M311.56,67.56a26.9,26.9,0,0,1-3-.07c-1.64-.2-2.32.3-2.22,2.08.14,2.57,0,5.16,0,7.74v4.17c0,6,0,6,6.1,5.84,4.93-.16,6.88-1.45,8.43-5.59C323.81,74,319.61,67.67,311.56,67.56Zm6.6,14.2c-1.1,2.19-4.45,3.53-7.48,3.17-1.35-.16-1.62-.86-1.6-2,0-.94,0-1.88,0-2.83V77.28c0-.28,0-.56,0-.84a7,7,0,0,1,.05-1.84c.31-1.52-1.12-3.83,1.05-4.45a7.08,7.08,0,0,1,6.76,1.33C319.16,73.47,319.75,78.59,318.16,81.76Z"/><path class="cls-12" d="M268.8,89.55a7.86,7.86,0,0,1-4.68-.11c-.83-.34-.33-1.2-.12-1.84.8-2.52,1.61-5,2.41-7.56l.59-.11c.79,2.54,1.58,5.07,2.34,7.61C269.58,88.32,269.8,89.32,268.8,89.55Z"/><path class="cls-12" d="M318.16,81.76c-1.1,2.19-4.45,3.53-7.48,3.17-1.35-.16-1.62-.86-1.6-2,0-.94,0-1.88,0-2.83V77.28c0-.28,0-.56,0-.84a7,7,0,0,1,.05-1.84c.31-1.52-1.12-3.83,1.05-4.45a7.08,7.08,0,0,1,6.76,1.33C319.16,73.47,319.75,78.59,318.16,81.76Z"/><path class="cls-11" d="M309.09,77.28v2.83c0-.94,0-1.89,0-2.83,0-.28,0-.56,0-.84C309.07,76.72,309.09,77,309.09,77.28Z"/></g></g></svg>