<svg xmlns="http://www.w3.org/2000/svg" viewBox="0 0 352.17 383.32" fill="#fff"><g id="Calque_2" data-name="Calque 2"><g id="Calque_1-2" data-name="Calque 1"><path className="cls-1" d="M297.37,191.56c0-.61,0-1.23,0-1.84,0,.62,0,1.23,0,1.84s0,1.15,0,1.72C297.36,192.7,297.37,192.13,297.37,191.56Zm0,3.79c0,.73,0,1.45.06,2.18C297.35,196.81,297.33,196.07,297.33,195.35Z"/><path d="M346.67,301.89c-12.1-12.25-24.33-24.36-36.5-36.55-.89-.89-1.72-1.85-2.86-3.09,16.7-1,24.09-6,24.14-17.05a21.86,21.86,0,0,0-3.7-11.4c-4.38-6.64-11.64-7.4-18.91-6.94-.63-6.37-2.34-8.81-5.92-8.81s-5.14,2.3-5.9,8.83h-3.95c-9.24,0-18.47,0-27.71,0-10.91.05-18.28,7.33-18.52,18.24,0,1.81,0,3.63,0,5.68H234c-7.61,0-9,1.37-9,8.88q0,45.84,0,91.69c0,12.8-8,20.7-20.87,20.7q-85.92,0-171.82,0a26.6,26.6,0,0,1-5.21-.37c-10-2-15.77-9.67-15.78-21V32.61c0-.87,0-1.75,0-2.62.3-9.5,7.34-17.75,16.82-18.49,8-.62,16.16-.13,24.34-.13.83,4.36,1.59,8.53,2.42,12.68C57.46,36.9,67.62,45.66,80.72,45.74q37.44.24,74.87,0c13.11-.09,23.19-8.85,25.75-21.76.82-4.14,1.62-8.28,2.49-12.74,7.07,0,14,0,21,0a23.14,23.14,0,0,1,3.73.21C218.59,13.11,224.94,21,225,32q0,55.76,0,111.53c0,4.87,2.23,7.67,5.84,7.53s5.38-2.7,5.38-7.52c0-37.3.07-74.61,0-111.91C236.11,13,223.05,0,204.53,0Q118.07,0,31.59.06A35.46,35.46,0,0,0,22,1.36C8.22,5.33.05,17,.05,32.44Q0,184.21,0,336c0,5.86-.13,11.73.06,17.59C.45,364.48,5.35,373,14.64,378.63c3.55,2.14,7.78,3.16,11.7,4.69H210.53c.18-.16.34-.42.55-.48,17.5-5,25.11-15.08,25.11-33.18q0-41.55,0-83.09v-4.35h10.64c0,1.64,0,3.1,0,4.55.06,9.73-.24,19.48.29,29.18.5,9.1,8.28,15.68,17.41,15.64a17.23,17.23,0,0,0,17.3-15.82c.23-2.56,0-5.16,0-7.74l1.49-.89a21.35,21.35,0,0,0,2.24,3.31q17.94,18.06,36,36c6.35,6.3,14.83,7.49,21.91,3.31C353.57,323.82,355.17,310.49,346.67,301.89ZM172.32,11.39c-.78,4-1.4,7.71-2.23,11.35a14.67,14.67,0,0,1-14.48,11.78q-37.41.15-74.84,0c-7.54,0-13.22-5-14.76-12.37-.73-3.51-1.35-7-2.05-10.76Zm167,307.43a6.3,6.3,0,0,1-8.18,1,19.67,19.67,0,0,1-3.06-2.72q-23-23-46-46.05c-2.25-2.26-4.55-4.07-7.87-2.68s-3.39,4.28-3.37,7.26c0,5.74.07,11.47,0,17.21-.07,4.91-2.39,7.55-6.38,7.53s-6.26-2.65-6.31-7.61c-.06-7.74,0-15.47,0-23.2s0-15.47,0-23.2c0-5.94,2.25-8.2,8.08-8.21q23.19,0,46.4,0c4.9,0,8,2.62,7.86,6.54s-3.06,6.15-7.83,6.17c-6,0-12,0-18,0-2.85,0-5.17.72-6.39,3.54s.08,5,2,7q23.45,23.4,46.84,46.83a24.27,24.27,0,0,1,2.32,2.44A6.23,6.23,0,0,1,339.29,318.82Z"/><path d="M182.42,181.29c-.07,12.05-8.5,20.05-20.51,20.07q-43.8.06-87.6,0c-12.19,0-20.39-8.19-20.46-20.46-.07-10.34-.06-20.68,0-31q0-6.39,0-12.77,0-6,0-12.1c0-10.81,0-21.63,0-32.45C53.94,82.41,60.3,74.84,70,73a16.28,16.28,0,0,1,2.6-.28c3.57,0,6,1.94,6.25,5.07s-1.69,5.53-5.21,6.11c-6.37,1-8.57,3.53-8.57,10q0,43.05,0,86.09c0,7.25,3,10.16,10.29,10.17q42.87,0,85.73,0c7,0,10.15-3,10.16-10q.07-43.23,0-86.47c0-6.73-3.21-9.78-10-9.79q-28.64,0-57.28,0a29,29,0,0,1-3.36-.06,5.56,5.56,0,0,1,.12-11.1c2.74-.19,5.49-.06,8.23-.06q26.4,0,52.79,0c12.08,0,20.55,7.89,20.63,19.92Q182.71,136.94,182.42,181.29Z"/><path d="M135.65,252.65q0,27.89,0,55.77c0,22.3-16.72,38.07-39.15,36.94-16.36-.83-30.74-12.16-33.8-26.89a50.34,50.34,0,0,1-.64-9.68c-.08-8.61,0-17.22,0-25.83q0-15.15,0-30.32a22.1,22.1,0,0,1,.18-3.73,5,5,0,0,1,4.88-4.37c2.79-.22,4.91,1,5.7,3.79a16,16,0,0,1,.44,4.44c0,18.59.91,37.24-.23,55.76-1.12,18.18,17.87,29.76,33.66,24.41,11-3.73,18.2-11,17.87-24.06-.46-18.71-.12-37.43-.11-56.15a17.17,17.17,0,0,1,.14-3.73,5.57,5.57,0,0,1,10.91-.08A15.4,15.4,0,0,1,135.65,252.65Z"/><path d="M174.29,253.1q0,20.94,0,41.87t0,41.87a18.81,18.81,0,0,1-.35,4.45,5.47,5.47,0,0,1-10.67-.42,24.34,24.34,0,0,1-.19-4.1q0-41.86,0-83.74c0-5.89,1.64-8.45,5.43-8.55C172.45,244.38,174.29,247.1,174.29,253.1Z"/><path d="M153.4,145.22c.06,3.17-2.38,5.66-6.12,5.71-9.22.12-18.45,0-27.67,0h0c-9.1,0-18.21.07-27.31,0-4.49-.05-7.4-3.06-6.56-6.64.64-2.69,2.35-4.48,5.25-4.48q28.41-.08,56.84,0A5.4,5.4,0,0,1,153.4,145.22Z"/><path d="M153.4,124.27c-.07,3.2-2.48,5.36-6.3,5.42-4.73.07-9.45,0-14.18,0-5,0-10,.06-14.94,0-3.58-.06-5.92-2.17-6.09-5.24a5.67,5.67,0,0,1,5.93-5.88q14.73-.21,29.48,0C151,118.59,153.46,121.12,153.4,124.27Z"/><path d="M256.34,165a77.55,77.55,0,0,1-14.13.05c-3.07-.26-4.83-2.72-4.52-5.85a5.19,5.19,0,0,1,5.46-5c2-.06,4,0,6,0s4.24-.1,6.35,0a5.09,5.09,0,0,1,5.2,4.86C261,162.23,259.42,164.71,256.34,165Z"/><path d="M223,163.33a32.18,32.18,0,0,1-2.69,3.6c-2.11,2.23-4.53,4.17-6.58,6.46-2.38,2.65-5.26,3.41-7.88,1.68a5.23,5.23,0,0,1-1.35-7.82,54.13,54.13,0,0,1,10.4-9.84C218.44,155,223.11,158.12,223,163.33Z"/><path d="M308.48,197.73a5.34,5.34,0,0,1-5.65,5.25,5.4,5.4,0,0,1-5.44-5.45c-.05-.73-.06-1.45-.06-2.18s0-1.38,0-2.07,0-1.15,0-1.72,0-1.22,0-1.84c0-1.37,0-2.75,0-4.13.17-3.29,2.29-5.53,5.27-5.7a5.6,5.6,0,0,1,5.85,5.53C308.69,189.51,308.7,193.63,308.48,197.73Z"/><path d="M298.31,161.74c-.1,4.86-3.5,7.45-7,6.5-3.67-1-7.34-2-11-3.08-3-.86-4.78-2.88-4.45-6s2.36-5.41,5.49-4.87a79,79,0,0,1,14.14,3.88C297,158.7,297.79,161,298.31,161.74Z"/><path d="M211.42,209.44c-.26,3-2.73,4.38-5.71,4.15a5,5,0,0,1-5-5c-.16-2.22,0-4.46,0-6.7h0c0-2-.1-4,0-6,.19-3.21,2-5,5.2-5.23,3-.18,5.37,1.35,5.6,4.29A87.27,87.27,0,0,1,211.42,209.44Z"/><path d="M211.38,250.82a5.3,5.3,0,0,1-7.45-2.85c-1.65-3.68-1.8-7.9-1.86-12.19-.1-2.66-.51-4.61,1.14-6,3.39-2.79,7.8-.2,8.62,4.5a68.24,68.24,0,0,0,2.22,8.91C215.11,246.57,214.22,249.48,211.38,250.82Z"/><path d="M96.82,124a5.38,5.38,0,0,1-5.21,5.64,5.58,5.58,0,0,1-5.94-5.37,5.76,5.76,0,0,1,5.67-5.74A5.56,5.56,0,0,1,96.82,124Z"/><path d="M206.2,29.42a5.41,5.41,0,1,1-5.33-5.51A5.34,5.34,0,0,1,206.2,29.42Z"/><path d="M134.89,23.83c0,3.11-2.28,5.38-5.81,5.5-3.72.13-7.45,0-11.18,0v0c-3.48,0-7,.08-10.44,0-3.72-.11-6.17-2.41-6.15-5.57a5.62,5.62,0,0,1,5.84-5.56c7.33-.13,14.66-.14,22,0A5.48,5.48,0,0,1,134.89,23.83Z"/></g></g></svg>