<svg width="353" height="50" viewBox="0 0 353 50" fill="none" xmlns="http://www.w3.org/2000/svg">
<path fill-rule="evenodd" clip-rule="evenodd" d="M351.051 23.6673C351.78 24.2853 352.314 24.7443 352.473 24.9032L352.979 25.4091L341.441 35.5037L340.559 34.4964L350.219 26.0456H0V24.7072H350.208C350.2 24.7009 350.193 24.6945 350.185 24.6881C349.604 24.1958 348.878 23.5835 348.066 22.9C347.84 22.7091 347.606 22.5126 347.368 22.3117C345.186 20.4726 342.565 18.2584 340.559 16.5036L341.441 15.4964C343.435 17.2416 346.047 19.4479 348.23 21.2882L348.923 21.8718C349.737 22.5571 350.467 23.1725 351.051 23.6673Z" fill="white"/>
<rect x="51" width="187" height="50" fill="#061426"/>
<path d="M73.288 24.656L66.996 12.696H59.586V12.93C60.314 12.982 61.146 13.398 62.16 15.192V24.11C62.16 27.516 61.042 30.766 58.26 30.766V31H66.372V30.766C63.356 30.766 62.394 27.464 62.394 24.11V15.582L70.818 31.234H71.052L77.786 13.398V28.582C77.786 30.35 77.682 30.766 76.46 30.766V31H84.39V30.766C83.116 30.766 82.908 30.35 82.908 28.582V14.854C82.908 13.268 82.856 12.93 84.13 12.93V12.696H77.786L73.288 24.656ZM92.2757 18.754C89.0777 18.754 85.7237 20.6 85.7237 25.02C85.7237 28.53 88.4797 31.234 91.8857 31.234C95.1357 31.234 97.0337 29.388 97.3717 27.464L97.1377 27.412C96.6177 29.622 94.8757 30.402 93.5757 30.116C91.8337 29.726 90.5857 28.686 90.5857 24.734H97.6577C97.6577 19.846 95.0317 18.754 92.2757 18.754ZM90.5857 24.5C90.5857 22.004 91.1837 18.988 92.3797 18.988C93.5497 18.988 93.8877 21.224 93.8877 24.5H90.5857ZM117.246 27.906C117.012 28.686 116.076 29.596 115.088 29.596C113.19 29.596 112.514 27.75 112.514 24.474C112.514 20.054 113.528 18.988 114.802 18.988C116.128 18.988 117.246 20.288 117.246 22.68V27.906ZM121.64 28.66V11.604L115.92 12.696V12.904C116.986 13.294 117.246 13.658 117.246 14.568V19.898C116.778 19.248 115.79 18.754 113.762 18.754C110.018 18.754 107.236 20.756 107.236 25.072C107.236 29.154 109.316 31.234 112.93 31.234C114.776 31.234 116.83 30.272 117.246 28.426V30.74C117.246 30.74 117.246 31.338 117.974 31.208L122.966 30.558V30.35C121.9 30.22 121.64 29.934 121.64 28.66ZM130.844 18.754C127.646 18.754 124.292 20.6 124.292 25.02C124.292 28.53 127.048 31.234 130.454 31.234C133.704 31.234 135.602 29.388 135.94 27.464L135.706 27.412C135.186 29.622 133.444 30.402 132.144 30.116C130.402 29.726 129.154 28.686 129.154 24.734H136.226C136.226 19.846 133.6 18.754 130.844 18.754ZM129.154 24.5C129.154 22.004 129.752 18.988 130.948 18.988C132.118 18.988 132.456 21.224 132.456 24.5H129.154ZM126.216 16.934H128.348L136.252 13.996L132.04 12.696L126.216 16.934ZM145.563 18.754C140.649 18.754 138.465 21.38 138.465 24.942C138.465 28.608 141.299 31.234 144.705 31.234C147.955 31.234 149.749 29.232 149.749 27.62L149.567 27.542C149.203 28.426 148.241 28.92 146.941 28.92C144.757 28.92 143.561 27.412 143.561 24.604C143.561 21.12 144.211 18.988 145.693 18.988C147.253 18.988 147.591 19.872 147.305 19.976C146.863 20.158 146.525 20.496 146.317 21.016C145.927 22.004 146.447 23.122 147.461 23.46C148.449 23.85 149.593 23.33 149.931 22.316C150.139 21.614 149.983 20.808 149.541 20.34C148.917 19.638 147.591 18.754 145.563 18.754ZM158.45 18.754C153.796 18.754 151.742 21.562 151.742 24.994C151.742 28.4 153.796 31.234 158.45 31.234C163.104 31.234 165.158 28.4 165.158 24.994C165.158 21.562 163.104 18.754 158.45 18.754ZM158.45 31C157.02 31 156.994 29.7 156.994 24.994C156.994 20.288 157.02 18.988 158.45 18.988C159.854 18.988 159.88 20.288 159.88 24.994C159.88 29.7 159.854 31 158.45 31ZM180.283 28.686V18.754L174.667 19.274V19.482C175.993 19.638 175.889 19.976 175.889 21.562V27.88C175.629 28.998 174.927 29.336 174.199 29.336C172.873 29.336 172.509 28.634 172.509 27.178V18.754L166.581 19.274V19.482C168.089 19.69 168.037 19.924 168.037 21.484V27.256C168.037 30.376 170.195 31.234 172.249 31.234C174.407 31.234 175.681 29.934 175.889 28.582V30.714C175.889 30.714 175.915 31.312 176.617 31.208L181.609 30.532V30.324C180.517 30.194 180.283 29.934 180.283 28.686ZM191.444 18.988V19.196C194.148 19.196 193.966 22.134 193.524 23.408C193.082 24.656 192.354 26.58 192.354 26.58L189.702 21.38C189.702 21.38 188.558 19.196 190.3 19.196V18.988H182.162V19.196C182.656 19.248 183.54 19.456 184.268 20.808L189.39 31.234H190.82L193.758 23.46C195.136 20.184 195.812 19.196 197.502 19.196V18.988H191.444ZM209.66 19.352C208.984 18.754 207.892 18.598 207.164 18.936C206.384 19.3 205.604 19.612 203.758 22.394V18.754L197.96 19.846V20.054C199.026 20.444 199.338 20.808 199.338 21.718V28.062C199.338 29.388 199.312 30.506 198.324 30.792V31H204.824V30.792C203.888 30.532 203.758 29.492 203.758 28.062V22.888C204.824 21.276 205.656 21.094 205.656 21.432C205.656 22.03 205.994 22.576 206.488 23.044C207.528 23.902 209.036 23.798 209.92 22.784C210.804 21.796 210.674 20.236 209.66 19.352ZM214.88 18.078C216.258 18.078 217.376 16.986 217.376 15.608C217.376 14.23 216.258 13.138 214.88 13.138C213.502 13.138 212.41 14.23 212.41 15.608C212.41 16.986 213.502 18.078 214.88 18.078ZM217.376 28.062V18.754L211.604 19.846V20.054C212.67 20.444 212.956 20.808 212.956 21.718V28.062C212.956 29.388 212.93 30.506 211.942 30.792V31H218.442V30.792C217.506 30.532 217.376 29.492 217.376 28.062ZM231.42 19.352C230.744 18.754 229.652 18.598 228.924 18.936C228.144 19.3 227.364 19.612 225.518 22.394V18.754L219.72 19.846V20.054C220.786 20.444 221.098 20.808 221.098 21.718V28.062C221.098 29.388 221.072 30.506 220.084 30.792V31H226.584V30.792C225.648 30.532 225.518 29.492 225.518 28.062V22.888C226.584 21.276 227.416 21.094 227.416 21.432C227.416 22.03 227.754 22.576 228.248 23.044C229.288 23.902 230.796 23.798 231.68 22.784C232.564 21.796 232.434 20.236 231.42 19.352Z" fill="white"/>
</svg>
