<svg width="1355" height="102" viewBox="0 0 1355 102" fill="none" xmlns="http://www.w3.org/2000/svg">
<path fill-rule="evenodd" clip-rule="evenodd" d="M198 47.6055H0V52.7401H198V47.6055ZM846.355 52.7401H1343.59L1306.53 85.1606L1309.91 89.0251L1354.18 50.298L1352.23 48.3574C1351.62 47.7476 1349.57 45.9868 1346.78 43.6158C1344.57 41.7418 1341.81 39.4163 1338.73 36.8273L1338.61 36.7275L1335.96 34.4888C1327.58 27.4285 1317.56 18.9642 1309.91 12.2688L1306.53 16.133C1314.22 22.865 1324.28 31.3598 1332.65 38.4152L1335.33 40.672L1335.39 40.7288C1338.48 43.3283 1341.24 45.657 1343.46 47.5322L1343.54 47.6055H846.355V52.7401Z" fill="black"/>
<path d="M313.46 71V30.2C313.46 22.295 315.755 11.84 326.295 11.84V11.16H300.54V11.84C309.975 11.84 312.695 22.295 312.695 30.2V52.895L283.795 11.16H256.68V11.84C258.89 12.01 262.205 11.925 267.305 18.64L271.3 24.335V51.875C271.3 58.59 269.6 70.235 257.87 70.235V71H284.9V70.235C272.49 70.235 272.065 58.675 272.065 51.875V25.355L304.11 71H313.46ZM352.284 30.965C341.829 30.965 330.864 37 330.864 51.45C330.864 62.925 339.874 71.765 351.009 71.765C361.634 71.765 367.839 65.73 368.944 59.44L368.179 59.27C366.479 66.495 360.784 69.045 356.534 68.11C350.839 66.835 346.759 63.435 346.759 50.515H369.879C369.879 34.535 361.294 30.965 352.284 30.965ZM346.759 49.75C346.759 41.59 348.714 31.73 352.624 31.73C356.449 31.73 357.554 39.04 357.554 49.75H346.759ZM420.584 65.985L405.879 45.5L408.939 40.825C412.254 35.64 418.969 32.41 425.514 32.41V31.73H404.349V32.41C413.699 32.41 408.004 40.91 408.004 40.91L405.369 44.82L400.779 39.125C397.719 35.13 399.504 32.41 401.884 32.41V31.73H372.814V32.41C374.259 32.58 376.894 32.58 380.209 36.15L394.149 55.53L390.919 59.78C386.244 66.325 379.869 70.32 374.259 70.32V71H397.124V70.32C384.459 70.32 391.684 60.205 391.684 60.205L394.659 56.125L400.099 63.605C400.184 63.69 405.284 70.32 401.374 70.32V71H427.384V70.32C425.939 70.15 423.474 69.895 420.584 65.985ZM455.109 65.56C450.179 65.56 448.479 63.265 448.479 58.505V32.495H459.444V31.73H448.479V18.555L434.199 20.34V31.73H428.844V32.495H434.199V58.76C434.199 69.045 441.849 71.765 448.564 71.765C454.854 71.765 459.784 67.855 460.804 63.35L460.294 63.01C459.274 64.2 457.574 65.56 455.109 65.56ZM512.798 71C508.293 71 506.253 66.835 505.828 59.185V44.48C506.168 38.785 507.783 33.855 512.798 33.855C518.918 33.855 521.298 41.93 521.298 51.875C521.298 65.475 517.558 71 512.798 71ZM520.448 30.965C512.543 30.965 508.208 33.43 505.828 37.595V30.965L486.958 34.535V35.215C490.443 36.49 491.378 37.68 491.378 40.655V83.92C491.378 88.255 491.293 91.825 488.063 92.76V93.525H509.313V92.76C506.253 91.91 505.828 88.595 505.828 83.92V69.81C508.208 71 511.608 71.765 516.283 71.765C527.163 71.765 538.383 67.515 538.383 50.685C538.383 40.145 532.093 30.965 520.448 30.965ZM581.232 32.92C579.022 30.965 575.452 30.455 573.072 31.56C570.522 32.75 567.972 33.77 561.937 42.865V30.965L542.982 34.535V35.215C546.467 36.49 547.487 37.68 547.487 40.655V61.395C547.487 65.73 547.402 69.385 544.172 70.32V71H565.422V70.32C562.362 69.47 561.937 66.07 561.937 61.395V44.48C565.422 39.21 568.142 38.615 568.142 39.72C568.142 41.675 569.247 43.46 570.862 44.99C574.262 47.795 579.192 47.455 582.082 44.14C584.972 40.91 584.547 35.81 581.232 32.92ZM610.79 30.965C595.575 30.965 588.86 40.145 588.86 51.365C588.86 62.5 595.575 71.765 610.79 71.765C626.005 71.765 632.72 62.5 632.72 51.365C632.72 40.145 626.005 30.965 610.79 30.965ZM610.79 71C606.115 71 606.03 66.75 606.03 51.365C606.03 35.98 606.115 31.73 610.79 31.73C615.38 31.73 615.465 35.98 615.465 51.365C615.465 66.75 615.38 71 610.79 71ZM648.932 28.585C653.437 28.585 657.092 25.015 657.092 20.51C657.092 16.005 653.437 12.435 648.932 12.435C644.427 12.435 640.857 16.005 640.857 20.51C640.857 25.015 644.427 28.585 648.932 28.585ZM638.392 35.215C641.877 37.085 642.642 38.615 642.642 41.505V68.705C642.642 68.705 642.642 88.425 637.457 89.7V90.38C645.872 88.255 657.007 82.815 657.007 66.75V30.965L638.392 34.535V35.215ZM687.22 30.965C676.765 30.965 665.8 37 665.8 51.45C665.8 62.925 674.81 71.765 685.945 71.765C696.57 71.765 702.775 65.73 703.88 59.44L703.115 59.27C701.415 66.495 695.72 69.045 691.47 68.11C685.775 66.835 681.695 63.435 681.695 50.515H704.815C704.815 34.535 696.23 30.965 687.22 30.965ZM681.695 49.75C681.695 41.59 683.65 31.73 687.56 31.73C691.385 31.73 692.49 39.04 692.49 49.75H681.695ZM735.34 30.965C719.275 30.965 712.135 39.55 712.135 51.195C712.135 63.18 721.4 71.765 732.535 71.765C743.16 71.765 749.025 65.22 749.025 59.95L748.43 59.695C747.24 62.585 744.095 64.2 739.845 64.2C732.705 64.2 728.795 59.27 728.795 50.09C728.795 38.7 730.92 31.73 735.765 31.73C740.865 31.73 741.97 34.62 741.035 34.96C739.59 35.555 738.485 36.66 737.805 38.36C736.53 41.59 738.23 45.245 741.545 46.35C744.775 47.625 748.515 45.925 749.62 42.61C750.3 40.315 749.79 37.68 748.345 36.15C746.305 33.855 741.97 30.965 735.34 30.965ZM779.255 65.56C774.325 65.56 772.625 63.265 772.625 58.505V32.495H783.59V31.73H772.625V18.555L758.345 20.34V31.73H752.99V32.495H758.345V58.76C758.345 69.045 765.995 71.765 772.71 71.765C779 71.765 783.93 67.855 784.95 63.35L784.44 63.01C783.42 64.2 781.72 65.56 779.255 65.56Z" fill="black"/>
</svg>
