<svg xmlns="http://www.w3.org/2000/svg" viewBox="0 0 408.91 335.55" fill="#fff"><g id="Calque_2" data-name="Calque 2"><g id="Calque_1-2" data-name="Calque 1"><path d="M408.91,21.6V313.93c-2.39,7.85-6,15-13.93,18.38a35.62,35.62,0,0,1-13.41,3.06q-137.34.25-274.69.12a19,19,0,0,1-2.39-.07c-4.41-.51-7.57-3.77-7.63-7.83a8.1,8.1,0,0,1,7.47-8,35.66,35.66,0,0,1,4.39-.1H379.81c9.71,0,13.13-3.42,13.13-13.15V48c-5.27,0-10.28.14-15.28,0-6.8-.23-10.69-6.45-7.5-11.85C372,33,374.87,32,378.29,32c4.75,0,9.51,0,15.4,0-.92-4.21-1-8.26-2.75-11.32-1.28-2.22-4.76-3.27-7.4-4.55-1-.47-2.36-.11-3.56-.11H29c-9.5,0-13,3.48-13,12.86V48h4.21q45.32,0,90.63.06a7.71,7.71,0,0,0,6.24-2.64A115.43,115.43,0,0,1,127.59,35a12.23,12.23,0,0,1,7-2.9q92.84-.22,185.66-.11c5.8,0,9.51,3.22,9.51,8s-3.79,8-9.93,8q-89.24,0-178.47-.06a9.91,9.91,0,0,0-7.62,3.18c-15.93,15.65-8.68,12.67-31,12.82-27.28.18-54.57,0-81.85,0H16V307.13c0,8.67,3.69,12.38,12.28,12.39,6.65,0,13.31,0,20,0,5.83.06,9.4,3.22,9.32,8.11-.07,4.72-3.57,7.77-9.19,7.83-7.32.07-14.64.11-22,0-15.26-.25-26.06-11-26.36-26.24-.12-6,0-12,0-18V29.3C0,10.25,10.29,0,29.42,0q175.48,0,351,0c11.7,0,20.66,4.27,26,15A66.34,66.34,0,0,1,408.91,21.6Z"/><path d="M112.53,235.77c-2.93-.15-2.91-2-3-4.12-.25-8.89-.11-17.83-1.07-26.65-.49-4.46-4.28-8.71-4.26-13,0-4.48,3.73-8.85,4.25-13.44a239.43,239.43,0,0,0,1-25.85c0-3.45.91-4.75,4.56-5.24C124.59,146,131.64,136.9,131,126.27A19.57,19.57,0,0,0,111.35,108c-15.6.28-27.81,7-35.92,20.63-5.32,8.95-6.29,18.76-5.79,27.23,0,5.11-.1,8.57,0,12,.09,2.52-.51,3.75-3.4,4.12-10.7,1.37-18.19,9.82-18,19.92s7.44,18.22,18,19.58c2.83.36,3.52,1.49,3.46,4.06-.12,5.85-.09,11.71,0,17.56.23,21.92,14.49,38.54,36.07,42.1,12.55,2.06,23.39-4.92,25.1-16.37A19.83,19.83,0,0,0,112.53,235.77Zm-3.31,23.74c-13-.58-23.22-11.73-23.57-26.34-.16-6.38,0-12.77-.05-19.15-.16-10.26-6.19-17-16.35-18.2-2.67-.31-4.89-1.08-4.89-4.08s2.2-3.8,4.87-4.1c10.09-1.13,16.17-7.94,16.38-18.18.17-7.84-.17-15.73.58-23.51,1.15-12,11.19-21.1,23.17-22,2.82-.21,5.31.29,5.6,3.55s-2.1,4.09-4.91,4.43c-10.06,1.2-16.19,8-16.42,18.25-.14,6.12-.12,12.24,0,18.36a27.76,27.76,0,0,1-5.26,17.2c-3.3,4.61-3.31,7.37,0,12a27.67,27.67,0,0,1,5.28,17.19c-.11,5.85-.07,11.71,0,17.56.11,11,6,17.68,16.82,19.11,2.7.35,4.79,1.35,4.54,4.37S112.48,259.74,109.22,259.51Z"/><path d="M347.56,173.06c-2.72-1-6.63-1.23-7.85-3.16-1.39-2.2-.38-5.92-.41-9,0-1.06,0-2.13,0-3.19h0c0-2.93.09-5.86,0-8.78-.7-21.45-15.79-38.08-37-40.87-12.09-1.59-22.55,5.66-24.15,16.75-1.66,11.43,5.86,21,18.16,22.81,2.39.36,3.18,1.34,3.16,3.59-.07,5.72,0,11.44,0,17.16a44.84,44.84,0,0,0,4.75,21.17c.63,1.25.31,3.22-.12,4.7-1.14,3.93-3.37,7.7-3.73,11.67-.77,8.58-.72,17.24-.84,25.87,0,2.57-.74,3.7-3.54,4.07-11.55,1.52-18.9,10.7-17.87,21.92.95,10.45,10.11,18,21.39,17.76,21.58-.54,39.14-18.56,39.86-41,.19-6,.2-12,0-18-.12-3.35.63-4.8,4.42-5.28,9.5-1.18,16.06-8.67,16.93-18.37C361.35,184.51,355.81,176.06,347.56,173.06Zm-8.21,22.79c-9.62,1.13-15.75,8-16,17.72-.2,8,.16,16-.6,23.9-1.14,12-11.14,21.11-23.13,22-2.81.22-5.32-.26-5.63-3.52s2-4.12,4.88-4.45c10-1.14,16.2-8,16.44-18.23.14-6.11.12-12.24,0-18.35a27.72,27.72,0,0,1,5.25-17.21c3.31-4.63,3.33-7.4.05-12a27.66,27.66,0,0,1-5.3-17.18c.11-6,.09-12,0-18-.16-10.69-6.17-17.41-16.78-18.74-2.72-.34-4.82-1.33-4.57-4.34.27-3.26,2.71-3.82,5.54-3.62,13.48,1,23.38,11.87,23.79,26.31.09,3.32,0,6.65,0,10h0c0,3.32-.09,6.65,0,10,.29,9.47,6.56,16.38,15.89,17.41,2.74.3,5.29.8,5.32,4.07S342.11,195.53,339.35,195.85Z"/><path d="M261.54,112.66c-7.05-12.76-26.48-14.19-35.41,1.43-25.86,45.22-52,90.24-78,135.42A26.27,26.27,0,0,0,144.79,260c-.81,9.18,5.4,17.47,14.34,20.11,8.66,2.56,17.92-1.05,22.86-9.57q39.78-68.62,79.28-137.42c1.73-3,2.48-6.61,3.76-10.14C263.84,119.33,263.22,115.7,261.54,112.66Zm-13.86,12.13c-.31.59-.62,1.18-1,1.75q-38.79,67.2-77.62,134.36a21.79,21.79,0,0,1-3.43,3.86c-3.74,0-5.62-2.41-4.86-4.95a16.9,16.9,0,0,1,1.79-3.55q38.38-66.49,76.78-133c.47-.81.76-2,1.45-2.33,1.74-.78,3.93-2,5.46-1.52C248.62,120.14,248.83,122.56,247.68,124.79Z"/><path d="M353,39.81a8.16,8.16,0,0,1-8.15,8.1A7.94,7.94,0,0,1,344.88,32,8.17,8.17,0,0,1,353,39.81Z"/><path d="M89.67,327.57a8,8,0,0,1-7.88,7.89,8,8,0,1,1,.11-15.9A8,8,0,0,1,89.67,327.57Z"/><path d="M43.7,32.42A8.17,8.17,0,0,1,35,39.88a7.93,7.93,0,0,1,1.27-15.81A8.16,8.16,0,0,1,43.7,32.42Z"/><path d="M75.67,31.85a8.21,8.21,0,0,1-7.81,8.07A7.94,7.94,0,1,1,67.59,24,8.27,8.27,0,0,1,75.67,31.85Z"/><path d="M107.61,31.91a8.21,8.21,0,0,1-7.86,8A7.94,7.94,0,1,1,99.59,24,8.26,8.26,0,0,1,107.61,31.91Z"/></g></g></svg>