<svg xmlns="http://www.w3.org/2000/svg" viewBox="0 0 319.43 319.46"><defs><style>.cls-1{fill:#fff;}</style></defs><g id="Calque_2" data-name="Calque 2"><g id="Calque_1-2" data-name="Calque 1"><path class="cls-1" d="M319.43,301.79c0,6.82-2.11,12.46-8.3,15.53a23.42,23.42,0,0,1-10.07,2q-75.8.18-151.59.08-65.86,0-131.74,0c-5.71,0-11-1.24-14.09-6.12A22.12,22.12,0,0,1,.23,302.62c-.4-13.34-.16-26.7-.16-40.06q0-122,0-244.08c0-5.33.86-10.16,4.86-14C8.44,1.05,12.74,0,17.57,0Q67.91.11,118.25,0c14,0,27.95-.1,41.92.07a15.49,15.49,0,0,1,15.32,13.68c.89,8.2-3.71,15.39-11.45,17.45a28,28,0,0,1-7,.6q-60.07,0-120.15,0H32V287.27H287.57v-4.53q0-60.27,0-120.54a25.44,25.44,0,0,1,1-8.09c2.47-7.24,9.81-11.28,17.61-10.09a15.61,15.61,0,0,1,13,14.76c.2,4.86.09,9.74.09,14.6Q319.4,237.58,319.43,301.79Z"/><path class="cls-1" d="M319.31,96.15a15.84,15.84,0,0,1-31.67.09c-.19-12.34-.07-24.7-.07-37,0-1.19,0-2.38,0-3.57l-1.65-1.23c-.72,1.3-1.19,2.86-2.2,3.87Q228.08,114,172.38,169.73c-4.2,4.21-8.88,6.79-15,5.92A15.91,15.91,0,0,1,147.12,150a38.33,38.33,0,0,1,3.33-3.54q55.31-55.3,110.63-110.59a22.65,22.65,0,0,1,3.72-2.51l-1.07-1.45c-13.2,0-26.4.05-39.59,0-7.52-.05-13.35-4.11-15.61-10.6A15.79,15.79,0,0,1,223.46.11c16.58-.19,33.17,0,49.76,0,9.85,0,19.71-.15,29.56,0,10.15.18,16.46,6.26,16.52,16.31Q319.54,56.3,319.31,96.15Z"/></g></g></svg>