<svg xmlns="http://www.w3.org/2000/svg" viewBox="0 0 290.41 383.32" fill="#fff"><g id="Calque_2" data-name="Calque 2"><g id="Calque_1-2" data-name="Calque 1"><path d="M270.54,262.29c-10-.05-20,0-30,0-1.32,0-2.64-.11-4-.16v-7.62h4.28c10.36,0,20.72.15,31.07-.07a18.56,18.56,0,0,0,0-37.11q-41.17-.24-82.36,0c-8.11.05-14.1,4.2-17,11.8-1.06,2.75-2.45,3.11-4.91,3.1-14-.08-28-.13-41.93,0-10.56.09-17.85,7.48-17.94,18-.06,7.61,0,15.22,0,22.83,0,1.19-.13,2.38-.21,3.79-9.09,0-17.81.08-26.52-.1-1,0-2.28-1.25-2.81-2.25-3.37-6.36-8.52-10.17-15.69-10.54a163.91,163.91,0,0,0-19.45,0c-9.59.61-16.42,7.64-17.26,17.08C25,289.85,31,298,40.17,300.31a70.07,70.07,0,0,0,7,1.07c0,5.26-.07,10.37,0,15.47.18,10.09,7.45,17.47,17.51,17.68,6.49.13,13,.06,19.47,0,4.29,0,6.95-2.29,6.91-5.7s-2.62-5.48-7-5.5c-6.24,0-12.48.05-18.72,0-4.08-.06-6.69-2.19-6.84-5.92-.22-5.32-.06-10.67-.06-16a6.68,6.68,0,0,1,1.32-.34c8.5-.09,14.77-3.72,18.8-11.32.49-.93,2.35-1.6,3.57-1.6q43.8-.14,87.6,0a5.69,5.69,0,0,1,4,2.26c4,5.8,9.28,8.92,16.3,9,4.24.07,8.49,0,12.73,0,7.33,0,14.66,0,22.16,0,.1,1.34.23,2.31.23,3.27,0,16.22.07,32.44,0,48.66-.06,12.68-8.23,20.69-21,20.69q-85.92,0-171.83,0a26.6,26.6,0,0,1-5.21-.36c-10-2-15.85-9.79-15.86-21V32.57c0-.87,0-1.74,0-2.61.45-9.06,6.5-17,15.49-18.08,8.43-1,17.06-.21,25.78-.21.91,4.52,1.71,9,2.74,13.53,2.75,12,12.66,20.41,24.84,20.5q38,.28,76,0c12.37-.1,22.42-8.67,25.06-20.74.82-3.77,1.41-7.6,2.29-11.35.2-.88,1.14-2.27,1.74-2.26,8.22,0,16.55-.57,24.63.58,9.74,1.38,15.31,9.62,15.31,20.5q0,79.35,0,158.7a39.48,39.48,0,0,0,.11,4.49,5.13,5.13,0,0,0,5.22,4.89,5.05,5.05,0,0,0,5.51-4.09,18.26,18.26,0,0,0,.38-4.44q0-34.62,0-69.25c0-30.19.06-60.38,0-90.58C236.3,13,223.22,0,204.06,0Q118.14,0,32.23.06A37.36,37.36,0,0,0,21.91,1.41C8.13,5.45,0,17.15,0,32.6Q0,191.68,0,350.75c0,1.12,0,2.25.06,3.37,1,12.37,7.14,21.29,18.37,26.58a70.08,70.08,0,0,0,7.72,2.62h184.2c.19-.16.36-.39.57-.45,17.44-4.8,25.44-15.28,25.45-33.37q0-22.83,0-45.67v-4.37h4c10,0,20,0,30,0,11.66,0,20.08-7.93,20-18.68C290.34,270.21,281.94,262.35,270.54,262.29ZM61.27,289.69c-2.86.13-5.73,0-8.6,0s-5.49.1-8.22,0c-4.37-.19-7.43-3.27-7.44-7.3a7.08,7.08,0,0,1,7-7.27c5.85-.23,11.72-.23,17.56,0a7.23,7.23,0,0,1,7.12,7.24A7.44,7.44,0,0,1,61.27,289.69ZM172.41,11.43c-.93,4.51-1.53,8.85-2.77,13a14.26,14.26,0,0,1-13.51,10q-38,.17-76,0c-6.35,0-11-3.57-13.15-9.43-1.56-4.25-2.07-8.9-3.1-13.6ZM190.88,228.5c13.36-.06,26.71,0,40.06,0,13,0,26,0,38.94,0,1.82,0,4.24,0,5.31,1.09,1.78,1.78,3.77,4.49,3.63,6.69s-2.56,4.45-4.43,6.2c-.89.83-2.84.73-4.31.73q-39.3.06-78.62,0c-4.87,0-7.85-1.9-8.76-5.43C181.37,232.68,184.93,228.52,190.88,228.5Zm-18.69,46a4,4,0,0,1-2.74,2.19c-16.46.1-32.92,0-49.38,0-.22,0-.43-.19-1-.45,0-9-.17-18.22.1-27.4.1-3.42,2.72-5.37,6.1-5.39q22.83-.16,45.65,0a4.13,4.13,0,0,1,2.79,1.79c4.08,6.34,9.91,9.21,17.32,9.21H225v7.57c-1.46.08-2.78.21-4.09.21-10,0-20,0-29.94,0C182,262.3,175.77,266.27,172.19,274.53ZM271,288.21c-13.35.06-26.7,0-40.05,0s-26.71,0-40.06,0c-4.49,0-7.44-2.07-8.23-5.58a7.17,7.17,0,0,1,5.83-8.9,23.34,23.34,0,0,1,4.1-.22H269c.75,0,1.5,0,2.24,0,4.69.24,7.89,3.17,7.94,7.27S275.84,288.19,271,288.21Z"/><path d="M204,180.36c-2.83,2-6,1.23-8.69-2.26q-14.75-19.33-29.42-38.74c-.59-.78-1.24-1.53-2.12-2.62-1,1.15-1.83,2.11-2.61,3.15q-13.54,17.91-27,35.83a17.07,17.07,0,0,1-1.89,2.32c-2.3,2.11-4.89,2.45-7.49.65-2.41-1.66-2.89-5-1-7.67,2.2-3.18,4.62-6.21,6.94-9.29l26-34.52c-7.9-10.43-15.72-20.75-23.55-31.07-1.88-2.48-3.83-4.92-5.64-7.45-2.23-3.12-1.9-6.31.7-8.3S134,79,136.33,81.93c8.66,11.27,17.23,22.62,25.83,33.94.38.49.78,1,1.48,1.84.92-1.14,1.76-2.11,2.53-3.13Q177.9,99,189.6,83.5c.52-.69,1-1.41,1.61-2.06,2.23-2.43,5.31-2.87,7.7-1.13,2.56,1.87,3.08,5,1.11,8-1.67,2.48-3.56,4.81-5.36,7.2l-23.91,31.72,25,33c2.86,3.78,5.76,7.53,8.58,11.34C206.94,175,206.76,178.41,204,180.36Z"/><path d="M103.42,116.14V144.2c0,17.41-9.06,29.81-25.67,35.13-20.27,6.49-43.49-6.07-47.35-25.92-.89-4.58-.49-9.43-.53-14.16-.08-7,0-14,0-21q0-15.35,0-30.69c0-5,2-7.6,5.68-7.54s5.54,2.65,5.54,7.75c0,19.2.74,38.45-.23,57.61-.73,14.5,15,26.08,28,24.31A29.49,29.49,0,0,0,85,162.61a20,20,0,0,0,7.22-15.75c-.13-19.33,0-38.67,0-58a28.91,28.91,0,0,1,.06-3.36c.39-3.48,2.77-5.6,6-5.41,3,.17,5.13,2.33,5.16,5.74C103.46,95.93,103.42,106,103.42,116.14Z"/><path d="M172.5,310.42q-23.55-.26-47.12,0c-10.8.1-19,8.29-18.92,18.56s8.27,18.34,19.07,18.45c7.73.07,15.45,0,23.18,0s15.71.07,23.56,0c10.66-.13,18.66-7.95,18.8-18.22C191.22,318.66,183.37,310.53,172.5,310.42Zm-1,25.77c-7.6.05-15.2,0-22.79,0s-15.2.05-22.79,0c-4.9,0-8.21-3-8.23-7.27s3.19-7.27,8.19-7.29q22.79-.11,45.58,0c5.32,0,8.41,2.9,8.32,7.45C179.73,333.43,176.63,336.16,171.54,336.19Z"/><path d="M206.37,29.48a5.61,5.61,0,0,1-5.68,5.32,5.45,5.45,0,1,1,.3-10.9A5.5,5.5,0,0,1,206.37,29.48Z"/><path className="cls-1" d="M117.9,29.35c-2.17,0-4.34,0-6.51,0,2.17,0,4.34,0,6.51,0,2.33,0,4.66,0,7,0C122.56,29.39,120.22,29.35,117.9,29.35Z"/><path d="M134.86,23.79c0,3.27-2.08,5.4-5.74,5.54-1.41.05-2.82.06-4.24.06-2.32,0-4.65,0-7,0-2.17,0-4.34,0-6.51,0-1.32,0-2.65,0-4-.05-3.65-.12-5.87-2.19-6-5.34s2.22-5.73,6-5.8c7.23-.12,14.47-.13,21.7,0C132.71,18.28,134.86,20.58,134.86,23.79Z"/></g></g></svg>